<?xml version="1.0" encoding="utf-8"?>
<svg version="1.1" id="Layer_1" xmlns="http://www.w3.org/2000/svg" xmlns:xlink="http://www.w3.org/1999/xlink" x="0px" y="0px"
	 viewBox="0 0 2653.099 978.101" enable-background="new 0 0 2653.099 978.101" xml:space="preserve">
<g>
	<g>
		<path fill="#B3B3B3" d="M2050.068,368.622c290.643,0,529.201,93.058,554.263,211.719c1.439-6.815,2.218-13.71,2.218-20.681
			c0-128.351-249.145-232.4-556.481-232.4s-556.481,104.049-556.481,232.4c0,6.971,0.779,13.866,2.218,20.681
			C1520.867,461.68,1759.425,368.622,2050.068,368.622z"/>
		<path d="M2050.068,792.059c290.643,0,529.201-93.058,554.263-211.719c-25.062-118.661-263.62-211.719-554.263-211.719
			s-529.201,93.058-554.263,211.719C1520.867,699.001,1759.425,792.059,2050.068,792.059z"/>
	</g>
	<g transform="translate(138.32 -37.077)">
		<g transform="translate(-340.56 -79.752)">
			<path fill="#7C471B" d="M612.702,189.379c-38.154,1.543-4.129,32.619-6.117,67.221c-2.744,47.774-45.294,44.205-36.711,131.776
				c-78.048,38.682-130.508,107.742-100.652,187.406c-84.644,31.893-112.274,110.273-90.299,189.121
				c-144.895,58.713-151.397,209.543-25.802,252.548c43.795,14.248,108.412,12.385,194.828-17.122
				c44.406-15.162,132.166,37.509,410.583,23.848c184.163-9.037,275.943-174.573,87.076-255.506
				c23.436-85.709-13.218-161.262-85.434-194.122c12.533-74.747-43.174-130.248-104.888-137.737
				c4.666-97.783-122.056-252.314-242.584-247.439L612.702,189.379z"/>
			<path fill="#6B3505" d="M614.315,241.199c0,0-12.213,61.063,39.08,73.274C714.457,324.243,702.246,270.508,614.315,241.199z
				 M837.495,370.596c-7.328,127.011-329.744,224.706-368.827,148.988c0,26.869,12.202,58.774,34.194,56.179
				c154.847-18.278,248.635-58.42,324.862-122.127c30.738-25.69,21.984-56.178,9.771-83.046L837.495,370.596z M949.336,503.229
				c-19.54,173.425-534.922,310.202-571.557,210.061c0,26.869-2.563,67.307,19.54,65.947
				c257.436-15.835,458.695-112.154,534.908-188.071c28.384-28.27,29.311-61.064,17.099-87.931L949.336,503.229z M1042.959,684.507
				c-17.098,161.214-681.463,363.931-759.629,256.46c7.328,68.391,102.464,94.176,183.189,75.719
				c50.509-11.549,100.019-25.156,147.517-40.139c-21.062,8.728-38.197,15.955-50.38,21.383
				c261.204,25.555,446.484,46.609,547.134-24.426c32.73-23.099,39.08-68.391,26.867-95.26
				c-28.802,170.414-290.867,109.738-448.285,72.815c154.654-55.926,278.999-123.788,331.6-176.19
				c28.384-28.27,34.197-63.505,21.984-90.373L1042.959,684.507z"/>
			<path fill="#855A34" d="M616.102,191.871c-4.37-0.088-8.285,0.295-11.643,1.211c0,0,85.753,87.924,188.071,100.141
				c57.565,6.874-110.876-100.038-176.437-101.353L616.102,191.871z M697.352,375.074c-0.419-0.011-0.858-0.011-1.319,0.003
				c-6.124,0.174-16.035,2.529-30.539,7.784c-29.048,10.524-53.734,7.327-85.487-4.886c-170.978,97.702-54.016,96.734,31.753,65.947
				C666.333,424.334,723.72,375.787,697.352,375.074L697.352,375.074z M864.08,439.713c-11.421-0.111-25.781,5.127-42.268,18.866
				C763.192,507.43,628.845,568.492,496.95,575.82c-58.62,17.098-100.213,63.086-58.62,63.506
				c253.599,2.561,356.106-80.402,442.097-146.554c22.823-17.556,12.836-52.776-16.352-53.06L864.08,439.713z M974.149,586.831
				c-9.669-0.106-25.383,7.409-48.282,26.492c-119.684,80.604-288.213,173.425-559.332,166.096
				c-58.62,17.098-63.424,57.48-21.984,61.061c312.224,26.987,595.472-124.367,635.064-212.495
				c10.003-22.268,9.628-40.979-5.455-41.146L974.149,586.831z M1048.09,778.987c-1.997-0.068-4.492,0.807-7.48,2.788
				c-115.391,76.483-200.269,109.981-297.99,144.106c-56.155,19.609,78.181,31.534,222.272-26.867
				C1040.25,868.469,1067.392,779.644,1048.09,778.987L1048.09,778.987z"/>
			<path fill="#531F02" d="M585.518,215.887c16.818,31.174,13.296,44.597-4.099,69.669c-14.076,20.291-32.82,48.936-23.685,95.314
				c-85.143,39.531-136.838,111.022-97.367,192.438c-86.504,21.834-123.745,94.644-94.114,187.775
				c-156.724,56.457-149.396,221.981-20.87,265.423c44.587,15.071,103.927,14.261,177.115-8.334
				c27.388-8.456,72.299,1.405,143.2,6.946c206.351,16.125,352.857,26.331,442.246-35.036
				c32.677-22.432,49.054-54.024,51.783-85.496c5.145-59.336-37.635-117.981-102.986-141.485
				c32.917-89.384-10.799-166.512-86.39-194.719c12.808-85.356-45.836-138.408-104.441-144.427
				c15.362-102.799-112.648-227.963-242.064-248.92c-25.847-4.185-54.996,9.946-38.323,40.848L585.518,215.887z M840.603,416.594
				c-4.857,56.644-328.772,207.157-362.577,127.488c-27.322-64.383,46.034-123.376,91.905-140.903
				c20.495-7.832,56.223,1.347,98.007-20.929c-79.124,3.226-107.097-21.724-65.168-81.858c22.334-37.678,25.857-60.069,4.811-98.594
				c110.783,1.203,240.022,133.19,233.026,214.798L840.603,416.594z M864.169,449.682c52.221,15.18,89.488,56.914,82.809,106.567
				c-12.826,95.32-526.157,284.202-560.15,180.696c-22.154-67.549,33.717-127.03,85.189-141.168
				c43.269-11.885,118.532-8.192,235.687-58.765c94.233-40.678,137.088-92.96,156.444-87.331H864.169z M966.599,594.717
				c62.632,31.316,86.686,94.186,68.661,149.702c-19.795,60.958-282.783,171.652-507.654,247.943
				c-235.427,79.872-324.063-114.634-176.491-197.292c39.508-22.13,134.473,21.591,353.492-59.653
				c221.269-82.081,245.667-148.866,261.998-140.7H966.599z M1053.124,789.904c83.823,37.699,110.627,130.69,39.665,179.069
				c-107.222,73.094-336.818,38.076-498.776,21.16c402.443-135.981,437.371-210.005,459.108-200.229L1053.124,789.904z"/>
		</g>
	</g>
</g>
</svg>
